<?xml version="1.0" encoding="utf-8"?>
<!-- Generator: Adobe Illustrator 22.0.1, SVG Export Plug-In . SVG Version: 6.00 Build 0)  -->
<svg version="1.1" id="Layer_3" xmlns="http://www.w3.org/2000/svg" xmlns:xlink="http://www.w3.org/1999/xlink" x="0px" y="0px"
	 viewBox="0 0 28 28" style="enable-background:new 0 0 28 28;" xml:space="preserve">
<style type="text/css">
	.st0{fill:none;stroke:#65727C;stroke-miterlimit:10;}
	.st1{fill:#65727C;}
</style>
<g>
	<path class="st0" d="M24.5,27.5h-21c-1.7,0-3-1.3-3-3v-21c0-1.7,1.3-3,3-3h21c1.7,0,3,1.3,3,3v21C27.5,26.2,26.2,27.5,24.5,27.5z"
		/>
	<g>
		<path class="st1" d="M3,13.6l6.3-3.3v0.9L4,14v0l5.3,2.7v0.9L3,14.4V13.6z"/>
		<path class="st1" d="M25,14.4l-6.3,3.3v-0.9L24,14v0l-5.4-2.7v-0.9l6.3,3.2V14.4z"/>
		<g>
			<path class="st1" d="M11.6,19L15.4,9h0.9L12.5,19H11.6z"/>
		</g>
	</g>
</g>
</svg>
