<?xml version="1.0" encoding="utf-8"?>
<!-- Generator: Adobe Illustrator 22.0.1, SVG Export Plug-In . SVG Version: 6.00 Build 0)  -->
<svg version="1.1" id="Layer_3" xmlns="http://www.w3.org/2000/svg" xmlns:xlink="http://www.w3.org/1999/xlink" x="0px" y="0px"
	 viewBox="0 0 28 28" style="enable-background:new 0 0 28 28;" xml:space="preserve">
<style type="text/css">
	.st0{display:none;}
	.st1{fill:none;stroke:#65727C;stroke-miterlimit:10;}
	.st2{fill:#65727C;}
</style>
<g>
	<g id="RAeGm9.tif" class="st0">
		
			<image style="display:inline;overflow:visible;" width="200" height="200" id="Layer_0_1_" xlink:href="DD9C26BB26619CF0.png"  transform="matrix(0.1639 0 0 0.1639 -2.0939 -1.3939)">
		</image>
	</g>
	<path class="st1" d="M24.5,27.5h-21c-1.7,0-3-1.3-3-3v-21c0-1.7,1.3-3,3-3h21c1.7,0,3,1.3,3,3v21C27.5,26.2,26.2,27.5,24.5,27.5z"
		/>
	<g>
		<path class="st2" d="M8.2,13.8l3.3-1.7v0.5L8.8,14l0,0l2.8,1.4v0.5l-3.3-1.7V13.8z"/>
		<path class="st2" d="M19.8,14.2l-3.3,1.7v-0.5l2.8-1.5l0,0l-2.8-1.4v-0.5l3.3,1.7L19.8,14.2L19.8,14.2z"/>
		<g>
			<path class="st2" d="M12.7,16.6l2-5.2h0.5l-2,5.2H12.7z"/>
		</g>
	</g>
	<g>
		<path class="st1" d="M22.5,23h-17c-1.7,0-3-1.3-3-3V8c0-1.7,1.3-3,3-3h17c1.7,0,3,1.3,3,3V20C25.5,21.7,24.2,23,22.5,23z"/>
		<line class="st1" x1="6.8" y1="5" x2="6.8" y2="23"/>
		<line class="st1" x1="21.4" y1="5" x2="21.4" y2="23"/>
		<line class="st1" x1="21.4" y1="9" x2="25.5" y2="9"/>
		<line class="st1" x1="21.4" y1="12.4" x2="25.5" y2="12.4"/>
		<line class="st1" x1="21.4" y1="15.8" x2="25.5" y2="15.8"/>
		<line class="st1" x1="21.4" y1="19" x2="25.5" y2="19"/>
		<line class="st1" x1="2.5" y1="9" x2="6.6" y2="9"/>
		<line class="st1" x1="2.5" y1="12.4" x2="6.6" y2="12.4"/>
		<line class="st1" x1="2.5" y1="15.8" x2="6.6" y2="15.8"/>
		<line class="st1" x1="2.5" y1="19" x2="6.6" y2="19"/>
	</g>
</g>
</svg>
