<?xml version="1.0" encoding="utf-8"?>
<!-- Generator: Adobe Illustrator 22.0.1, SVG Export Plug-In . SVG Version: 6.00 Build 0)  -->
<svg version="1.1" id="Layer_1" xmlns="http://www.w3.org/2000/svg" xmlns:xlink="http://www.w3.org/1999/xlink" x="0px" y="0px"
	 viewBox="0 0 28 28" style="enable-background:new 0 0 28 28;" xml:space="preserve">
<style type="text/css">
	.st0{fill:none;stroke:#65727C;stroke-miterlimit:10;}
	.st1{fill:#65727C;}
	.st2{fill:#65727C;stroke:#65727C;stroke-linecap:round;stroke-linejoin:round;stroke-miterlimit:10;}
	.st3{fill:none;stroke:#65727C;stroke-linecap:round;stroke-miterlimit:10;}
</style>
<g>
	<path class="st0" d="M24.5,27.5h-21c-1.7,0-3-1.3-3-3v-21c0-1.7,1.3-3,3-3h21c1.7,0,3,1.3,3,3v21C27.5,26.2,26.2,27.5,24.5,27.5z"
		/>
	<polygon class="st1" points="8.5,15.3 12.4,8.8 15.5,13.7 17,11.2 19.5,15.3 	"/>
	<line class="st2" x1="4.1" y1="7.4" x2="23.8" y2="7.4"/>
	<line class="st0" x1="5.7" y1="7.4" x2="5.7" y2="17.3"/>
	<line class="st0" x1="5.7" y1="16.8" x2="22.6" y2="16.8"/>
	<line class="st0" x1="22.2" y1="16.7" x2="22.2" y2="7.4"/>
	<line class="st3" x1="13.9" y1="7.4" x2="13.9" y2="6.1"/>
	<line class="st3" x1="13.9" y1="21.4" x2="13.9" y2="16.8"/>
	<line class="st3" x1="6.9" y1="21" x2="13.9" y2="16.8"/>
	<line class="st3" x1="20.9" y1="21" x2="13.9" y2="16.8"/>
</g>
</svg>
